<svg xmlns="http://www.w3.org/2000/svg" viewBox="0 0 150 150">
<!-- SVG created with Arrow, by QuiverAI (https://quiver.ai) -->
  <style type="text/css">.cls-0 {fill:url(#SVGID_1_);}
.cls-1 {fill:#6731BC;}
.cls-2 {fill:url(#SVGID_2_);}
.cls-3 {fill:url(#SVGID_3_);}
.cls-4 {fill:url(#SVGID_4_);}</style>
  <linearGradient id="SVGID_1_" x1="89.84" x2="137.6" y1="106.9" y2="106.9" gradientUnits="userSpaceOnUse">
    <stop stop-color="#1B1A5C" offset="0"/>
    <stop stop-color="#6C31CE" offset="1"/>
  </linearGradient>
  <polygon class="cls-0" points="137.6 139.7 114.9 139.7 52.9 100.6 76.1 75.3"/>
  <polygon class="cls-1" points="12.5 9.6 48.4 9.6 48.3 52.6 89.5 9.7 137.6 9.6 66.6 87.5 49.6 104.6 49.6 139.7 12.4 139.7 12.4 77.1"/>
  <linearGradient id="SVGID_2_" x1="12.47" x2="116.5" y1="91.2" y2="22.44" gradientUnits="userSpaceOnUse">
    <stop stop-color="#2E1F82" offset="0"/>
    <stop stop-color="#853EF3" offset="1"/>
  </linearGradient>
  <polygon class="cls-2" points="12.4 89.2 90.5 9.7 115.3 9.7 54 74.8 65.8 87.4 49.6 104.6 49.6 139.7 12.4 139.7"/>
  <linearGradient id="SVGID_3_" x1="29.46" x2="32" y1="42.26" y2="42.26" gradientUnits="userSpaceOnUse">
    <stop stop-color="#5D3CC9" offset="0"/>
    <stop stop-color="#765CEE" offset="1"/>
  </linearGradient>
  <path class="cls-3" d="m29.5 9.5h2.5v60.2l-2.5 2.4v-62.6z"/>
  <linearGradient id="SVGID_4_" x1="-218.6" x2="-374" y1="-159.9" y2="-106.3" gradientTransform="matrix(-1 0 0 -1 -176.2 -81.93)" gradientUnits="userSpaceOnUse">
    <stop stop-color="#3944BD" offset="0"/>
    <stop stop-color="#9F70FC" offset="1"/>
  </linearGradient>
  <path class="cls-4" d="m29.5 95.1v45h2.4v-44.2l19.9-19.4 62.9 63.4c0.6 0.6 2.8 0.1 2.8 0.1l-64.1-65.2-1.3-0.8-22.6 21.1z"/>
</svg>